<svg id="Capa_1" enable-background="new 0 0 512.01 512.01" height="512" viewBox="0 0 512.01 512.01" width="512" xmlns="http://www.w3.org/2000/svg"><g><path d="m331.005 226.01c0-41.355-33.645-75-75-75s-75 33.645-75 75 33.645 75 75 75 75-33.644 75-75zm-120 0c0-24.813 20.187-45 45-45s45 20.187 45 45-20.187 45-45 45-45-20.187-45-45z"/><path d="m116.762 512.01h34.243v-15c0-24.935 20.607-46 45-46h45v61h30v-61h45c24.393 0 45 21.065 45 46v15h34.243l27.849-112.633-60.55-40.366c14.585-45.233 28.458-103.812 28.458-163 0-86.001-60.179-158.705-135-196.01-73.974 36.884-135 109.008-135 196.01 0 59.189 13.872 117.768 28.458 163.001l-60.55 40.366zm272.151-99.366-10.49 42.425c-9.308-14.09-23.44-25.423-40.52-30.743 4.002-9.161 9.077-21.409 14.495-36.026zm-132.906-378.783c12.872 7.544 42.057 26.654 66.399 57.149h-132.937c18.642-23.266 42.933-43.323 66.538-57.149zm-86.33 87.149h172.481c11.238 21.298 18.847 46.304 18.847 75 0 97.292-41.461 196.239-54.527 225h-35.473v-75h-30v75h-35.473c-13.068-28.764-54.527-127.708-54.527-225 0-26.376 6.266-51.449 18.672-75zm-10.065 267.29c5.418 14.617 10.493 26.865 14.495 36.026-17.069 5.316-31.206 16.644-40.52 30.743l-10.49-42.425z"/></g></svg>