<svg width="18" height="16" viewBox="0 0 18 16" fill="none" xmlns="http://www.w3.org/2000/svg">
<path d="M8.83894 0C6.70105 0 3.67237 8.78912 2.42526 13.1837C2.42526 15.1434 6.20608 14.9714 7.05736 13.1837C8.83894 9.44236 8.83894 8.55157 12.0458 10.3332C14.8877 11.912 18.4595 16.3905 17.925 13.1837C17.3905 9.97684 11.5113 0 8.83894 0Z" fill="#96BFE6"/>
<path d="M7.41368 0.356316C5.27579 0.356316 2.2471 9.14543 1 13.54C1 15.4997 4.78082 15.3277 5.6321 13.54C7.41368 9.79868 7.41368 8.90789 10.6205 10.6895C13.4625 12.2683 17.0342 16.7468 16.4997 13.54C15.9653 10.3332 10.086 0.356316 7.41368 0.356316Z" stroke="#5C5C5C" stroke-width="0.5"/>
</svg>
